<?xml version="1.0" encoding="utf-8"?>
<!-- Generator: Adobe Illustrator 22.0.0, SVG Export Plug-In . SVG Version: 6.00 Build 0)  -->
<svg version="1.1" id="Capa_1" xmlns="http://www.w3.org/2000/svg" xmlns:xlink="http://www.w3.org/1999/xlink" x="0px" y="0px"
	 viewBox="0 0 283.5 283.3" style="enable-background:new 0 0 283.5 283.3;" xml:space="preserve">
<style type="text/css">
	.st0{fill:#A46044;}
</style>
<path class="st0" d="M142.7,228.7L142.7,228.7c-11.8,0-22.7-2.2-32.8-6.7s-18.8-10.5-26.1-18.2l0,0L96.6,189
	c6,6.3,13,11.4,21.1,15.2c8.1,3.8,16.5,5.8,25.2,5.8l0,0c11.1,0,19.7-2.5,25.9-7.6c6.1-5,9.2-11.6,9.2-19.8l0,0
	c0-4.3-0.7-7.9-2.2-10.9c-1.5-3-3.4-5.5-5.9-7.7s-5.4-4.1-8.8-5.8c-3.4-1.7-7.1-3.5-11-5.4l0,0L126,142.5c-3.9-1.7-7.9-3.8-12-6.1
	c-4.1-2.4-7.8-5.3-11-8.7c-3.2-3.4-5.9-7.5-7.9-12.2c-2-4.7-3.1-10.1-3.1-16.3l0,0c0-6.3,1.3-12.2,4-17.7c2.6-5.5,6.3-10.2,11-14.2
	c4.7-4,10.2-7.1,16.6-9.3c6.4-2.2,13.4-3.3,21.1-3.3l0,0c10.1,0,19.4,1.9,27.9,5.8s15.8,8.8,21.8,15l0,0l-11.5,13.8
	c-5.1-4.9-10.8-8.8-17-11.6c-6.2-2.8-13.3-4.2-21.1-4.2l0,0c-9.4,0-16.9,2.2-22.7,6.5c-5.7,4.4-8.6,10.4-8.6,18l0,0
	c0,4.1,0.8,7.6,2.4,10.4c1.6,2.8,3.8,5.3,6.5,7.4c2.7,2.1,5.7,4,9,5.6c3.2,1.6,6.6,3.1,10,4.5l0,0l23.8,10.2c4.8,2,9.3,4.4,13.6,7
	c4.3,2.6,7.9,5.7,11,9.2c3.1,3.5,5.5,7.6,7.3,12.3c1.8,4.7,2.7,10.1,2.7,16.3l0,0c0,6.7-1.3,12.9-4,18.7
	c-2.6,5.8-6.4,10.9-11.4,15.2c-4.9,4.4-10.9,7.8-17.9,10.2S151.6,228.7,142.7,228.7z"/>
</svg>
